<?xml version="1.0" encoding="UTF-8" standalone="no"?>
<svg width="1000" height="917.35797" viewBox="0 0 1000 917.35797" version="1.1" id="svg15202" sodipodi:docname="Logo_Salcobrand.svg" inkscape:version="1.2.2 (732a01da63, 2022-12-09)" xmlns:inkscape="http://www.inkscape.org/namespaces/inkscape" xmlns:sodipodi="http://sodipodi.sourceforge.net/DTD/sodipodi-0.dtd" xmlns="http://www.w3.org/2000/svg" xmlns:svg="http://www.w3.org/2000/svg" xmlns:rdf="http://www.w3.org/1999/02/22-rdf-syntax-ns#" xmlns:cc="http://creativecommons.org/ns#" xmlns:dc="http://purl.org/dc/elements/1.1/">
  <title id="title15369">Farmacias Salcobrand</title>
  <sodipodi:namedview id="namedview15204" pagecolor="#ffffff" bordercolor="#666666" borderopacity="1.0" inkscape:showpageshadow="2" inkscape:pageopacity="0.0" inkscape:pagecheckerboard="0" inkscape:deskcolor="#d1d1d1" showgrid="false" inkscape:zoom="0.50144002" inkscape:cx="500.55837" inkscape:cy="458.67899" inkscape:window-width="1366" inkscape:window-height="705" inkscape:window-x="-8" inkscape:window-y="-8" inkscape:window-maximized="1" inkscape:current-layer="svg15202"/>
  <!-- Generator: Sketch 42 (36781) - http://www.bohemiancoding.com/sketch -->
  <desc id="desc15133">Created with Sketch.</desc>
  <defs id="defs15135"/>
  <g id="Symbols" stroke="none" stroke-width="0.142578" fill="none" fill-rule="evenodd" transform="matrix(7.0137197,0,0,7.0137197,65.005075,24.999796)">
    <g id="header-2" transform="translate(-605)" style="stroke-width:0.142578">
      <g id="Group-14" style="stroke-width:0.142578">
        <g id="Asset-3" transform="translate(605)" style="stroke-width:0.142578">
          <g id="Layer_2" style="stroke-width:0.142578">
            <g id="g15195" style="stroke-width:0.142578">
              <g id="Capa_1" style="stroke-width:0.142578">
                <path d="m 62.020574,0 c 34.254067,0 62.017466,27.682522 62.017466,61.83298 0,34.150458 -27.766509,61.83298 -62.017466,61.83298 C 27.769617,123.66596 0,95.983438 0,61.83298 0,27.682522 27.766507,0 62.020574,0 Z" id="Shape" fill="#0074c8" style="stroke-width:0.0194724"/>
                <path d="m 59.096504,48.076923 v 6.931899 H 28.371656 c -3.228201,0 -3.006628,3.919674 0,3.919674 h 24.074568 c 5.496252,0.214259 7.764302,2.779062 7.764302,8.746797 0,5.967735 -1.975696,8.800361 -7.764302,9.247784 H 19.157895 v -7.04218 h 31.952734 c 3.385149,0 3.160499,-3.803092 0,-3.803092 h -23.40677 c -5.597807,0 -8.542887,-3.232786 -8.542887,-8.976809 0,-6.582154 3.286673,-9.020922 8.542887,-9.020922 z" id="path15138" fill="#ffffff" style="stroke-width:0.0194724"/>
                <path d="m 69.355794,55.037997 v 14.891622 h 23.700134 c 4.026569,0 4.935693,-2.191326 4.935693,-7.447376 0,-5.365617 -1.522547,-7.447376 -5.888857,-7.447376 z M 61.532297,37.087912 h 7.71025 v 11.069324 h 23.542846 c 8.663417,0 12.583027,4.573609 12.583027,13.645696 0,10.048792 -2.43167,15.120145 -12.189808,15.120145 H 61.532297 Z" id="path15140" fill="#ffffff" style="stroke-width:0.0194724"/>
                <polygon id="polygon15142" fill="#ffffff" points="20.955502,44.401177 20.473445,44.401177 20.473445,40.841641 22.945933,40.841641 22.945933,41.266429 20.955502,41.266429 20.955502,42.357855 22.706459,42.357855 22.706459,42.785743 20.955502,42.785743 " style="stroke-width:0.0194724"/>
                <path d="m 26.338995,42.937675 -0.525598,-1.565824 v 0 l -0.572249,1.565824 z m -1.244019,0.427888 -0.373206,1.035614 h -0.497607 l 1.34354,-3.562636 h 0.547369 l 1.29378,3.562636 h -0.528709 l -0.354545,-1.035614 z" id="path15144" fill="#ffffff" style="stroke-width:0.0194724"/>
                <path d="m 29.763158,42.463276 h 1.119617 c 0.08858,2.85e-4 0.177017,-0.007 0.264354,-0.0217 0.08212,-0.01382 0.160476,-0.04443 0.230144,-0.08992 0.07074,-0.04699 0.128492,-0.110968 0.167942,-0.186038 0.0878,-0.206067 0.0878,-0.438866 0,-0.644933 -0.03842,-0.07315 -0.09522,-0.135109 -0.164832,-0.179837 -0.06337,-0.03927 -0.134405,-0.06464 -0.208373,-0.07442 -0.06731,-0.0045 -0.134843,-0.0045 -0.202154,0 h -1.206698 v 1.20925 z m 0,1.937901 H 29.2811 v -3.559536 h 1.651436 c 0.144185,-4.18e-4 0.288023,0.01413 0.429186,0.04341 0.133781,0.02702 0.261376,0.07853 0.376316,0.151932 0.112192,0.07333 0.204151,0.173543 0.267464,0.29146 0.07306,0.145013 0.108351,0.306019 0.102632,0.468197 0.0031,0.114222 -0.01162,0.228229 -0.04354,0.33797 -0.04791,0.159782 -0.146028,0.299997 -0.279904,0.399982 -0.05579,0.04251 -0.113931,0.08185 -0.174163,0.117825 0.05098,0.02 0.100812,0.04277 0.149283,0.06821 0.05153,0.02804 0.09698,0.06598 0.133732,0.111623 0.04391,0.05636 0.07663,0.120555 0.09641,0.189139 0.02864,0.100971 0.04432,0.205158 0.04665,0.310064 l 0.0311,0.644933 c -0.0029,0.04233 -0.0029,0.0848 0,0.127126 0.0047,0.0322 0.01418,0.06353 0.02799,0.09302 0.01365,0.02818 0.03267,0.05345 0.05598,0.07442 0.02739,0.0243 0.05768,0.04513 0.09019,0.06201 v 0.08062 h -0.590909 c -0.02034,-0.06896 -0.0349,-0.139483 -0.04354,-0.210844 -0.01244,-0.08682 -0.02177,-0.175703 -0.02799,-0.266655 -0.0062,-0.09095 -0.0062,-0.17467 0,-0.251152 v -0.167435 c -5.26e-4,-0.07478 -0.0068,-0.149411 -0.01866,-0.223246 -0.01096,-0.07398 -0.03978,-0.14421 -0.08397,-0.204642 -0.05011,-0.06557 -0.116599,-0.116887 -0.192823,-0.148831 -0.108924,-0.04204 -0.225423,-0.06104 -0.342105,-0.05581 h -1.178708 v 1.528616 z" id="path15146" fill="#ffffff" style="stroke-width:0.0194724"/>
                <path d="m 37.143301,44.401177 v -2.102234 -0.136429 -0.223246 -0.266655 -0.263554 l -1.004545,2.992118 H 35.659809 L 34.655263,41.41526 v 0.263554 0.263555 0.220145 0.136429 2.102234 h -0.466507 v -3.559536 h 0.690431 l 1.020095,3.010723 1.013876,-3.010723 h 0.68732 v 3.559536 z" id="path15148" fill="#ffffff" style="stroke-width:0.0194724"/>
                <path d="m 41.559569,42.937675 -0.528708,-1.565824 v 0 l -0.572249,1.565824 z m -1.244019,0.427888 -0.373206,1.035614 h -0.497607 l 1.34354,-3.562636 h 0.547369 l 1.272009,3.562636 h -0.528708 l -0.354545,-1.035614 z" id="path15150" fill="#ffffff" style="stroke-width:0.0194724"/>
                <path d="m 46.82177,41.911362 c -0.02586,-0.136801 -0.08219,-0.26607 -0.164832,-0.378278 -0.06901,-0.09166 -0.15572,-0.168616 -0.255024,-0.226347 -0.0966,-0.0532 -0.201899,-0.0889 -0.311005,-0.105421 -0.09335,-0.01747 -0.188042,-0.02681 -0.283014,-0.02791 -0.155895,-9.17e-4 -0.310359,0.02967 -0.454067,0.08992 -0.141677,0.06042 -0.268096,0.151503 -0.370096,0.266656 -0.112905,0.128317 -0.198596,0.278086 -0.251914,0.440291 -0.06555,0.20008 -0.09708,0.409679 -0.0933,0.620128 -0.0014,0.196888 0.01836,0.39336 0.05909,0.586021 0.03421,0.168744 0.101885,0.328976 0.199043,0.471297 0.09448,0.132246 0.220638,0.238834 0.366985,0.310064 0.175144,0.08104 0.366804,0.120314 0.559809,0.114724 0.09034,-0.0016 0.180148,-0.01406 0.267464,-0.03721 0.112033,-0.02679 0.217699,-0.07525 0.311005,-0.142629 0.109337,-0.08506 0.201204,-0.190336 0.270574,-0.310064 0.09278,-0.154213 0.155071,-0.324721 0.183493,-0.502304 h 0.466507 c -0.02546,0.197811 -0.08214,0.390362 -0.167943,0.570518 -0.06858,0.1431 -0.15879,0.27486 -0.267464,0.390681 -0.0904,0.09713 -0.195305,0.179751 -0.311004,0.24495 -0.09896,0.05464 -0.203148,0.09931 -0.311005,0.133328 -0.09325,0.02817 -0.189108,0.04686 -0.286125,0.05581 h -0.192823 c -0.201634,-4.61e-4 -0.401627,-0.03614 -0.590909,-0.105421 -0.194413,-0.07002 -0.370763,-0.182288 -0.516268,-0.328668 -0.161703,-0.167326 -0.285754,-0.36711 -0.363875,-0.586021 -0.09782,-0.280927 -0.144168,-0.577099 -0.136842,-0.874381 -0.0027,-0.254682 0.03619,-0.508105 0.115071,-0.750355 0.06997,-0.215137 0.18202,-0.414315 0.329665,-0.586021 0.144409,-0.164691 0.324012,-0.295012 0.525599,-0.381379 0.416676,-0.168959 0.880547,-0.182172 1.30622,-0.03721 0.163028,0.05886 0.313789,0.147148 0.444736,0.260454 0.118692,0.104337 0.215874,0.230714 0.286125,0.372077 0.06878,0.135925 0.112991,0.282868 0.130622,0.43409 z" id="path15152" fill="#ffffff" style="stroke-width:0.0194724"/>
                <polygon id="polygon15154" fill="#ffffff" points="49.654476,44.401177 49.37201,44.401177 49.37201,40.841641 49.654476,40.841641 " style="stroke-width:0.0194724"/>
                <path d="m 53.890909,42.937675 -0.528708,-1.565824 v 0 l -0.572249,1.565824 z m -1.244019,0.427888 -0.398086,1.035614 h -0.497608 l 1.343541,-3.562636 h 0.547368 l 1.29378,3.562636 h -0.510048 l -0.354545,-1.035614 z" id="path15156" fill="#ffffff" style="stroke-width:0.0194724"/>
                <path d="m 58.857655,41.883457 c 5.36e-4,-0.11613 -0.02609,-0.230786 -0.07775,-0.33487 -0.05149,-0.08927 -0.122765,-0.165626 -0.208373,-0.223246 -0.08524,-0.0561 -0.180129,-0.09605 -0.279904,-0.117824 -0.102029,-0.02313 -0.206373,-0.03458 -0.311005,-0.03411 -0.08544,6.83e-4 -0.170703,0.0079 -0.255024,0.0217 -0.09365,0.01454 -0.18411,0.04495 -0.267464,0.08992 -0.0836,0.04557 -0.155046,0.110422 -0.208373,0.189139 -0.05769,0.09299 -0.08687,0.200761 -0.08397,0.310064 -0.0023,0.06607 0.01046,0.131797 0.03732,0.19224 0.02297,0.04946 0.05577,0.09376 0.09641,0.130227 0.03971,0.03418 0.08493,0.06143 0.133733,0.08062 0.05062,0.0201 0.10258,0.03668 0.155502,0.04961 l 1.020096,0.232548 c 0.10777,0.02612 0.212136,0.06462 0.311005,0.114723 0.196554,0.09488 0.349072,0.261362 0.426076,0.465097 0.04375,0.119092 0.06485,0.245274 0.0622,0.372076 0.0078,0.184533 -0.0375,0.36744 -0.130622,0.52711 -0.08478,0.135194 -0.201078,0.247952 -0.338995,0.328667 -0.140668,0.08188 -0.294175,0.139534 -0.454067,0.170536 -0.297051,0.06039 -0.602612,0.06669 -0.901914,0.0186 -0.106359,-0.0168 -0.210617,-0.04487 -0.311005,-0.08372 -0.0736,-0.02895 -0.143537,-0.06641 -0.208373,-0.111623 -0.04987,-0.03545 -0.09764,-0.07375 -0.143062,-0.114724 -0.141018,-0.111541 -0.248599,-0.259554 -0.311005,-0.427888 -0.04621,-0.153891 -0.06926,-0.313763 -0.06842,-0.474398 h 0.454067 c -0.0053,0.139864 0.0258,0.278712 0.09019,0.403083 0.05594,0.101371 0.134721,0.188408 0.230144,0.254253 0.09417,0.06451 0.199674,0.110794 0.311005,0.136428 0.114212,0.02649 0.231063,0.04001 0.348325,0.04031 0.09782,-8.25e-4 0.19548,-0.0081 0.292344,-0.0217 0.107422,-0.01336 0.212244,-0.04262 0.311005,-0.08682 0.09256,-0.04091 0.174483,-0.102434 0.239474,-0.179837 0.0682,-0.08859 0.102391,-0.198554 0.09641,-0.310064 0.0021,-0.08016 -0.01057,-0.160026 -0.03732,-0.235649 -0.0255,-0.06601 -0.0685,-0.12388 -0.124402,-0.167435 -0.07061,-0.05272 -0.149406,-0.09357 -0.233254,-0.120925 -0.09745,-0.03514 -0.219776,-0.07028 -0.366985,-0.105422 l -0.730862,-0.167434 c -0.07394,-0.01812 -0.146658,-0.0409 -0.217703,-0.06821 -0.09009,-0.0339 -0.174098,-0.08206 -0.248804,-0.14263 -0.08344,-0.06788 -0.153105,-0.151019 -0.205263,-0.24495 -0.06218,-0.118391 -0.0922,-0.25094 -0.08708,-0.38448 -4.16e-4,-0.138279 0.02272,-0.275625 0.06842,-0.406184 0.04572,-0.132303 0.120036,-0.252973 0.217703,-0.353473 0.108619,-0.108555 0.238963,-0.193075 0.382536,-0.248051 0.177885,-0.06624 0.366871,-0.09782 0.556699,-0.09302 0.252396,-0.01005 0.504213,0.03109 0.740191,0.120925 0.162001,0.06827 0.304996,0.17466 0.416746,0.310064 0.0897,0.107892 0.152567,0.235377 0.183493,0.372077 0.02588,0.11331 0.04355,0.228331 0.05287,0.344171 z" id="path15158" fill="#ffffff" style="stroke-width:0.0194724"/>
                <path d="m 26.63445,81.72049 c -0.0029,-0.194085 -0.05303,-0.384564 -0.146173,-0.555014 -0.0831,-0.142926 -0.19802,-0.264919 -0.335885,-0.356574 -0.136973,-0.09157 -0.289925,-0.156768 -0.450957,-0.19224 -0.15915,-0.03646 -0.321871,-0.05518 -0.485167,-0.05581 -0.137598,0.0019 -0.274847,0.01431 -0.410526,0.03721 -0.149094,0.02318 -0.293163,0.07141 -0.426077,0.14263 -0.135451,0.07477 -0.250703,0.181165 -0.335885,0.310064 -0.0981,0.155543 -0.145873,0.337391 -0.136842,0.520908 -0.0043,0.106498 0.0159,0.212566 0.05909,0.310064 0.03712,0.07907 0.09004,0.14976 0.155502,0.207743 0.06349,0.05538 0.136087,0.09944 0.214593,0.130227 0.07993,0.03251 0.162024,0.05944 0.245694,0.08062 l 1.632775,0.372077 c 0.178782,0.04027 0.3521,0.10168 0.516268,0.182938 0.314534,0.153077 0.558277,0.420495 0.681101,0.747254 0.07003,0.190541 0.103785,0.392438 0.09952,0.595323 0.01103,0.294437 -0.06233,0.585909 -0.211483,0.840274 -0.135193,0.216571 -0.320835,0.397398 -0.541148,0.527109 -0.224555,0.130687 -0.469497,0.222918 -0.724642,0.272857 -0.474396,0.09555 -0.962189,0.105002 -1.439952,0.0279 -0.166021,-0.02862 -0.328614,-0.07434 -0.485167,-0.136428 -0.118658,-0.04658 -0.231397,-0.106947 -0.335885,-0.179837 -0.07899,-0.05677 -0.154785,-0.117846 -0.227034,-0.182938 -0.216421,-0.181962 -0.379711,-0.41866 -0.472727,-0.685242 -0.07345,-0.245467 -0.110127,-0.500403 -0.108852,-0.756556 h 0.733972 c -0.0084,0.222647 0.04083,0.443705 0.143062,0.641833 0.09189,0.156643 0.21848,0.290273 0.370095,0.39068 0.152763,0.103285 0.323692,0.17692 0.503828,0.217045 0.182514,0.04254 0.369265,0.06439 0.556699,0.06511 0.157193,-0.002 0.314078,-0.01444 0.469617,-0.03721 0.168715,-0.02251 0.333217,-0.06952 0.488277,-0.139529 0.147812,-0.06593 0.27863,-0.164539 0.382536,-0.288359 0.109216,-0.141744 0.164332,-0.317581 0.155503,-0.496103 0.0032,-0.127594 -0.01678,-0.254716 -0.05909,-0.375177 -0.04077,-0.105287 -0.109593,-0.197484 -0.199043,-0.266656 -0.112945,-0.08487 -0.238995,-0.15085 -0.373206,-0.19534 -0.157576,-0.05581 -0.352472,-0.112657 -0.584689,-0.170535 l -1.169378,-0.269756 c -0.119343,-0.02868 -0.236727,-0.06493 -0.351435,-0.108522 -0.143987,-0.05373 -0.278392,-0.130151 -0.398086,-0.226347 -0.134087,-0.109084 -0.245989,-0.24275 -0.329666,-0.393782 -0.09989,-0.191079 -0.148125,-0.404807 -0.139952,-0.620128 3.1e-5,-0.221803 0.03789,-0.441986 0.111962,-0.651134 0.07899,-0.206817 0.202081,-0.394068 0.360766,-0.548814 0.176677,-0.174876 0.388729,-0.310179 0.622009,-0.396882 0.285009,-0.107219 0.588038,-0.158799 0.892584,-0.151931 0.404203,-0.0161 0.807439,0.05037 1.184928,0.19534 0.256806,0.10409 0.484979,0.267793 0.66555,0.477499 0.144105,0.172495 0.245334,0.376466 0.295455,0.595323 0.04118,0.181736 0.06924,0.366179 0.08397,0.551914 z" id="path15160" fill="#ffffff" style="stroke-width:0.0194724"/>
                <path d="m 34.064354,83.407239 -0.842823,-2.508418 h -0.01555 l -0.917464,2.508418 z m -2.015311,0.682141 -0.597129,1.658843 h -0.796172 l 2.149043,-5.698978 h 0.877033 l 2.083732,5.702078 h -0.842823 l -0.566028,-1.658842 z" id="path15162" fill="#ffffff" style="stroke-width:0.0194724"/>
                <polygon id="polygon15164" fill="#ffffff" points="39.276794,80.055446 40.051196,80.055446 40.051196,85.069182 42.946651,85.069182 42.946651,85.751323 39.276794,85.751323 " style="stroke-width:0.0194724"/>
                <path d="m 50.538277,81.767 c -0.03794,-0.224032 -0.127351,-0.436275 -0.261243,-0.620128 -0.11113,-0.146251 -0.250769,-0.268593 -0.410527,-0.359674 -0.146773,-0.08308 -0.306615,-0.140742 -0.472727,-0.170536 -0.149799,-0.02763 -0.301732,-0.04215 -0.454067,-0.04341 -0.249777,-0.0022 -0.497384,0.04636 -0.727751,0.14263 -0.227144,0.09594 -0.430047,0.241041 -0.594019,0.424788 -0.180187,0.206261 -0.316656,0.446733 -0.401197,0.706946 -0.103448,0.319328 -0.152848,0.6536 -0.146172,0.989104 -0.0011,0.312601 0.03117,0.624431 0.09641,0.930192 0.05261,0.269204 0.158322,0.52531 0.311004,0.753456 0.149852,0.212626 0.350908,0.384287 0.584689,0.499203 0.280065,0.130102 0.586877,0.192766 0.895694,0.182938 0.144914,-0.0024 0.289012,-0.02219 0.429187,-0.05891 0.170396,-0.04529 0.330749,-0.122067 0.472727,-0.226347 0.173701,-0.128261 0.321443,-0.288182 0.435407,-0.471297 0.149434,-0.247344 0.249742,-0.52104 0.295454,-0.806167 h 0.749522 c -0.04042,0.316015 -0.13069,0.623674 -0.267464,0.911589 -0.110556,0.22729 -0.255288,0.436411 -0.429187,0.620128 -0.149321,0.157233 -0.322483,0.290112 -0.513158,0.393781 -0.166179,0.08933 -0.3413,0.161041 -0.522488,0.213944 -0.152378,0.05218 -0.30975,0.08855 -0.469617,0.108523 -0.136842,0 -0.242584,0.0155 -0.311005,0.0155 -0.318343,-0.002 -0.633965,-0.05861 -0.933014,-0.167435 -0.310499,-0.112656 -0.592006,-0.292699 -0.824163,-0.527109 -0.257698,-0.265541 -0.455926,-0.582592 -0.581579,-0.930192 -0.156444,-0.450327 -0.230191,-0.92508 -0.217703,-1.40149 -0.0049,-0.408295 0.05712,-0.814646 0.183493,-1.203048 0.11235,-0.341414 0.290937,-0.657472 0.525598,-0.930193 0.229628,-0.266969 0.516639,-0.478927 0.839713,-0.620128 0.667048,-0.26875 1.408738,-0.289657 2.089952,-0.05891 0.260984,0.0937 0.502416,0.23455 0.712201,0.415486 0.189811,0.166878 0.34511,0.369103 0.457177,0.595323 0.109812,0.217525 0.180346,0.45263 0.208373,0.694544 z" id="path15166" fill="#ffffff" style="stroke-width:0.0194724"/>
                <path d="m 60.381579,82.904935 c -8.74e-4,0.218336 -0.02064,0.436189 -0.05909,0.651135 -0.04016,0.231127 -0.103719,0.457599 -0.189713,0.67594 -0.0896,0.219203 -0.204399,0.427304 -0.342105,0.620128 -0.144703,0.205152 -0.321045,0.386192 -0.522488,0.53641 -0.219298,0.162291 -0.464203,0.286993 -0.724641,0.368977 -0.618419,0.180096 -1.275601,0.180096 -1.89402,0 -0.26046,-0.08193 -0.505373,-0.206636 -0.724641,-0.368977 -0.201443,-0.150218 -0.377785,-0.331258 -0.522488,-0.53641 -0.137635,-0.192868 -0.252433,-0.400961 -0.342105,-0.620128 -0.08599,-0.218341 -0.149556,-0.444813 -0.189713,-0.67594 -0.07969,-0.430455 -0.07969,-0.871815 0,-1.302269 0.04016,-0.231128 0.10372,-0.4576 0.189713,-0.67594 0.0897,-0.219156 0.204494,-0.427246 0.342105,-0.620128 0.144663,-0.205185 0.32101,-0.386232 0.522488,-0.536411 0.219144,-0.162539 0.464092,-0.287263 0.724641,-0.368976 0.618443,-0.179924 1.275577,-0.179924 1.89402,0 0.260549,0.08171 0.505497,0.206437 0.724641,0.368976 0.201478,0.150179 0.377825,0.331226 0.522488,0.536411 0.137659,0.192853 0.252458,0.400948 0.342105,0.620128 0.08599,0.21834 0.149556,0.444812 0.189713,0.67594 0.03848,0.214942 0.05825,0.432797 0.05909,0.651134 z m -0.796172,0 c 0.0031,-0.315267 -0.04305,-0.629095 -0.136842,-0.930192 -0.08235,-0.268279 -0.216526,-0.517914 -0.394977,-0.734852 -0.1695,-0.2045 -0.381792,-0.369587 -0.622009,-0.4837 -0.531219,-0.232381 -1.135767,-0.232381 -1.666986,0 -0.240006,0.114453 -0.452229,0.279486 -0.622009,0.4837 -0.178451,0.216938 -0.312627,0.466573 -0.394976,0.734852 -0.182772,0.606742 -0.182772,1.253642 0,1.860384 0.08235,0.26828 0.216525,0.517915 0.394976,0.734852 0.169849,0.204143 0.382055,0.369164 0.622009,0.4837 0.531219,0.232381 1.135767,0.232381 1.666986,0 0.240164,-0.114198 0.452439,-0.279271 0.622009,-0.4837 0.178451,-0.216937 0.312628,-0.466572 0.394977,-0.734852 0.09379,-0.301097 0.139958,-0.614924 0.136842,-0.930192 z" id="path15168" fill="#ffffff" style="stroke-width:0.0194724"/>
                <path d="m 64.884928,85.093988 h 1.648326 c 0.327739,0.02496 0.652644,-0.07599 0.908134,-0.282159 0.20944,-0.196149 0.322954,-0.473417 0.311004,-0.759657 0.008,-0.170184 -0.03302,-0.339096 -0.118182,-0.4868 -0.0772,-0.122675 -0.184162,-0.22398 -0.311004,-0.294561 -0.133116,-0.0733 -0.278583,-0.121638 -0.429187,-0.14263 -0.158468,-0.02452 -0.318581,-0.03696 -0.478947,-0.03721 h -1.520814 v 1.999913 z m -0.771292,-5.038542 h 2.516029 c 0.238321,-0.0047 0.475483,0.03423 0.699761,0.114724 0.18878,0.06706 0.361441,0.172666 0.506938,0.310064 0.134597,0.128493 0.240562,0.283791 0.311004,0.455794 0.06931,0.175732 0.10415,0.363091 0.102632,0.551914 -1.63e-4,0.104121 -0.01058,0.207974 -0.0311,0.310064 -0.02371,0.108187 -0.06244,0.212548 -0.115072,0.310064 -0.06045,0.114424 -0.138057,0.218982 -0.230144,0.310065 -0.112563,0.107485 -0.243067,0.194574 -0.385646,0.257353 0.09641,0.03721 0.202153,0.08372 0.311005,0.142629 0.125091,0.06228 0.239505,0.143905 0.338995,0.24185 0.114131,0.113746 0.204974,0.248545 0.267464,0.396882 0.07967,0.196763 0.116766,0.408084 0.108852,0.620128 0.0012,0.222325 -0.04212,0.442653 -0.127512,0.648034 -0.08389,0.202905 -0.210038,0.38574 -0.370096,0.536411 -0.175071,0.161836 -0.381437,0.286336 -0.606459,0.365876 -0.269459,0.09521 -0.553875,0.141419 -0.839713,0.136428 h -2.460048 v -5.70828 z m 0.771292,2.412299 h 1.393302 c 0.305142,0.01618 0.60879,-0.05252 0.877033,-0.198441 0.225959,-0.167912 0.344589,-0.443483 0.311005,-0.72245 0.01467,-0.237988 -0.08594,-0.468572 -0.270574,-0.620128 -0.273845,-0.167326 -0.594436,-0.24234 -0.914354,-0.213944 h -1.399522 v 1.764265 z" id="path15170" fill="#ffffff" style="stroke-width:0.0194724"/>
                <path d="m 73.126555,82.650683 h 1.791388 c 0.141794,-3.64e-4 0.283298,-0.01281 0.422966,-0.03721 0.131974,-0.02136 0.258026,-0.06994 0.370096,-0.14263 0.11431,-0.07882 0.206405,-0.185584 0.267464,-0.310064 0.141235,-0.329769 0.141235,-0.702744 0,-1.032513 -0.06195,-0.116234 -0.153024,-0.214506 -0.264354,-0.285259 -0.101294,-0.06235 -0.214727,-0.10251 -0.332775,-0.117824 -0.103046,-0.01475 -0.206918,-0.02303 -0.311005,-0.02481 h -1.92512 v 1.9379 z m 0,3.10064 h -0.771292 v -5.695877 h 2.643541 c 0.23098,-3e-4 0.461352,0.0236 0.68732,0.07131 0.213378,0.04286 0.416911,0.124865 0.60024,0.24185 0.179215,0.11791 0.325749,0.27893 0.426076,0.468197 0.11721,0.232373 0.173894,0.490411 0.164833,0.750355 0.0041,0.182435 -0.01999,0.364414 -0.07153,0.539511 -0.07574,0.254933 -0.231652,0.478852 -0.444737,0.638732 -0.0887,0.06713 -0.181111,0.129237 -0.276795,0.186039 0.08187,0.03267 0.161827,0.06994 0.239474,0.111623 0.08255,0.04551 0.155429,0.106593 0.214594,0.179837 0.07086,0.09273 0.123614,0.197908 0.155502,0.310064 0.04467,0.156516 0.06975,0.317943 0.07464,0.480599 l 0.04665,1.032514 c -0.0046,0.0671 -0.0046,0.134441 0,0.201541 0.0067,0.05256 0.02136,0.10379 0.04354,0.151932 0.02113,0.04451 0.0507,0.08452 0.08708,0.117824 0.04331,0.03894 0.09138,0.07228 0.143062,0.09922 v 0.127126 h -0.933014 c -0.03176,-0.110669 -0.05464,-0.223683 -0.06842,-0.33797 -0.01866,-0.139529 -0.03421,-0.282158 -0.04354,-0.424788 -0.0093,-0.142629 -0.01555,-0.275957 -0.01866,-0.399982 -0.0031,-0.124026 0,-0.213945 0,-0.266655 -5.02e-4,-0.119384 -0.0099,-0.238566 -0.02799,-0.356574 -0.01828,-0.118977 -0.06524,-0.231758 -0.136842,-0.328668 -0.08108,-0.105193 -0.188275,-0.187485 -0.311005,-0.238749 -0.173299,-0.06693 -0.358569,-0.09753 -0.544258,-0.08992 h -1.866029 v 2.443305 z" id="path15172" fill="#ffffff" style="stroke-width:0.0194724"/>
                <path d="m 83.747368,83.407239 -0.842823,-2.508418 h -0.01555 l -0.914354,2.508418 z m -2.0122,0.682141 -0.59713,1.658843 h -0.796172 l 2.149043,-5.698978 h 0.873924 l 2.068181,5.698978 H 84.593301 L 84.027273,84.08938 Z" id="path15174" fill="#ffffff" style="stroke-width:0.0194724"/>
                <polygon id="polygon15176" fill="#ffffff" points="89.72799,81.149973 89.71244,81.149973 89.71244,85.751323 88.962919,85.751323 88.962919,80.055446 89.877273,80.055446 92.735407,84.656797 92.750957,84.656797 92.750957,80.055446 93.500478,80.055446 93.500478,85.751323 92.632775,85.751323 " style="stroke-width:0.0194724"/>
                <path d="m 98.352153,85.093988 h 1.495933 c 0.470514,0.0161 0.919884,-0.195211 1.206694,-0.567418 0.33201,-0.486017 0.49081,-1.069059 0.45096,-1.655742 0.0439,-0.576851 -0.11927,-1.150475 -0.46028,-1.618534 -0.30999,-0.3602 -0.76838,-0.558998 -1.244025,-0.539512 h -1.439952 v 4.381206 z m -0.771292,-5.038542 h 2.316986 c 0.344473,-0.0055 0.686083,0.06323 1.001433,0.201542 0.29112,0.130732 0.54931,0.324581 0.75574,0.567417 0.2151,0.256519 0.3778,0.552501 0.47895,0.87128 0.11559,0.363904 0.17228,0.743844 0.16794,1.125533 -0.002,0.334957 -0.0405,0.668706 -0.11507,0.995306 -0.0731,0.337951 -0.20808,0.659582 -0.39808,0.948796 -0.42096,0.64376 -1.15199,1.017601 -1.922014,0.982903 h -2.285885 z" id="path15178" fill="#ffffff" style="stroke-width:0.0194724"/>
                <path d="m 97.241866,38.854131 c 1.349654,-2.007889 3.073834,-3.738433 5.078704,-5.097454 2.43206,2.641746 5.40838,4.551741 8.64905,5.212177 1.00773,-2.001351 1.51357,-4.216506 1.47416,-6.455534 1.61516,-0.766018 3.13403,-1.719336 4.52512,-2.840187 4.57488,0.19224 9.10311,1.674346 12.77608,4.650961 -7.39881,11.118898 -24.18374,12.061493 -32.515554,4.530037 z" id="path15180" fill="#feca42" style="stroke-width:0.0194724"/>
                <path d="m 116.98134,29.673133 c -1.39109,1.120851 -2.90996,2.074169 -4.52512,2.840187 0.002,-0.866696 -0.0535,-1.732573 -0.16483,-2.592136 1.55195,-0.230116 3.12228,-0.313171 4.68995,-0.248051 z" id="path15182" fill="#f68f48" style="stroke-width:0.0194724"/>
                <path d="m 108.85168,20.216178 c 2.37296,-6.095859 7.59473,-10.6010907 15.19569,-12.653715 2.43828,8.734505 -0.7433,17.013216 -7.06603,22.113771 -1.56767,-0.06512 -3.138,0.01793 -4.68995,0.248051 -0.4716,-3.435775 -1.64209,-6.739321 -3.43971,-9.708107 z" id="path15184" fill="#b2c748" style="stroke-width:0.0194724"/>
                <path d="m 112.29139,29.921184 c 0.1113,0.859564 0.16636,1.72544 0.16483,2.592136 -1.42465,0.677077 -2.91343,1.210957 -4.44426,1.593729 -0.20733,-1.01701 -0.3618,-2.015416 -0.4634,-2.995219 1.53804,-0.549333 3.12667,-0.946069 4.74283,-1.184445 z" id="path15186" fill="#b78bb3" style="stroke-width:0.0194724"/>
                <path d="m 108.85168,20.216178 c 1.79831,2.967609 2.96985,6.270074 3.44282,9.705006 -1.61616,0.238376 -3.2048,0.635112 -4.74282,1.184445 -0.41364,-3.990525 0.0435,-7.661683 1.3,-10.889451 z" id="path15188" fill="#0091c3" style="stroke-width:0.0194724"/>
                <path d="m 110.98206,38.968854 c -3.24378,-0.660436 -6.2201,-2.570431 -8.64905,-5.212177 1.61818,-1.102585 3.37219,-1.99257 5.21867,-2.647947 0.10159,0.979802 0.25605,1.978209 0.46339,2.995219 1.53072,-0.381775 3.01949,-0.914615 4.44426,-1.590629 0.0394,2.239028 -0.46643,4.454183 -1.47416,6.455534 z" id="path15190" fill="#ee3f38" style="stroke-width:0.0194724"/>
                <path d="M 102.32057,33.756677 C 96.958852,27.905768 94.23445,18.501524 97.126794,11.07859 c 4.851676,0.930192 8.975596,4.576546 11.721766,9.134488 -1.24401,3.227767 -1.71363,6.902026 -1.3,10.88945 -1.85002,0.656593 -3.60723,1.548691 -5.22799,2.654149 z" id="path15192" fill="#00acdb" style="stroke-width:0.0194724"/>
              </g>
            </g>
          </g>
        </g>
      </g>
    </g>
  </g>
  <metadata id="metadata15206">
    <rdf:RDF>
      <cc:Work rdf:about="">
        <dc:title>Farmacias Salcobrand</dc:title>
        <dc:subject>
          <rdf:Bag>
            <rdf:li>Farmacia</rdf:li>
            <rdf:li>Salcobrand</rdf:li>
            <rdf:li>Chile</rdf:li>
            <rdf:li>Logo</rdf:li>
            <rdf:li>Logotipo</rdf:li>
            <rdf:li>Vector</rdf:li>
            <rdf:li>SVG</rdf:li>
          </rdf:Bag>
        </dc:subject>
      </cc:Work>
    </rdf:RDF>
  </metadata>
</svg>